OpenSim_Sub10_CSStiffKnee_RCS.mot
version=1
nRows=78
nColumns=11
inDegrees=no
endheader
time	Top_Thigh	Med_Thigh	Bot_Thigh	Top_Shank	2nd_Top_Shank	2nd_Bot_Shank	Bot_Shank	BNOx	BNOy	BNOZ
20.43000000	1970.26931285	1962.98377221	1765.43171696	1318.59974061	1498.11012861	1296.86868912	1302.36069775	0	0	0
20.44000000	1972.72442859	1965.35123401	1765.87799029	1320.37595815	1501.27710252	1294.73285310	1301.15018282	0	0	0
20.45000000	1978.66112051	1967.98638627	1767.97730618	1321.41499867	1503.58236327	1293.47931055	1300.32364102	0	0	0
20.46000000	1987.37516193	1970.77322988	1771.36815082	1321.80320824	1505.10735238	1292.99488008	1299.83625813	0	0	0
20.47000000	1998.16232616	1973.59576570	1775.68901038	1321.62693293	1505.93351140	1293.16638028	1299.64321994	0	0	0
20.48000000	2010.31838650	1976.33799463	1780.57837105	1320.97251878	1506.14228187	1293.88062977	1299.69971225	0	0	0
20.49000000	2023.13911626	1978.88391754	1785.67471901	1319.92631187	1505.81510532	1295.02444714	1299.96092083	0	0	0
20.50000000	2035.92028875	1981.11753530	1790.61654045	1318.57465826	1505.03342328	1296.48465100	1300.38203150	0	0	0
20.51000000	2047.95767728	1982.92284880	1795.04232155	1317.00390401	1503.87867730	1298.14805997	1300.91823002	0	0	0
20.52000000	2058.54705515	1984.18385891	1798.59054849	1315.30039518	1502.43230890	1299.90149263	1301.52470220	0	0	0
20.53000000	2066.98419567	1984.78456651	1800.89970746	1313.55047783	1500.77575963	1301.63176761	1302.15663383	0	0	0
20.54000000	2072.56487215	1984.60897248	1801.60828463	1311.84049803	1498.99047102	1303.22570350	1302.76921069	0	0	0
20.55000000	2074.58485790	1983.54107770	1800.35476621	1310.25680183	1497.15788461	1304.57011890	1303.31761858	0	0	0
20.56000000	2072.33992623	1981.46488304	1796.77763835	1308.88573530	1495.35944194	1305.55183243	1303.75704328	0	0	0
20.57000000	2065.12921393	1978.26533077	1790.51843510	1307.81342531	1493.67649672	1306.05800327	1304.04284212	0	0	0
20.58000000	2052.96491920	1974.02693488	1781.86483380	1307.07952787	1492.17178575	1306.04799608	1304.16673661	0	0	0
20.59000000	2037.45017438	1969.27948032	1772.54614281	1306.62001647	1490.86650900	1305.64227537	1304.20158162	0	0	0
20.60000000	2020.40337561	1964.61300010	1764.48673265	1306.35683565	1489.77624625	1304.98310355	1304.23120987	0	0	0
20.61000000	2003.64291903	1960.61752723	1759.61097383	1306.21192995	1488.91657726	1304.21274300	1304.33945409	0	0	0
20.62000000	1988.98720078	1957.88309474	1759.84323686	1306.10724393	1488.30308181	1303.47345613	1304.61014701	0	0	0
20.63000000	1978.25061639	1956.99793875	1767.09684376	1305.96489420	1487.95119314	1302.90723531	1305.12685702	0	0	0
20.64000000	1972.39942847	1958.16935594	1780.94283722	1305.74347894	1487.84528218	1302.59883069	1305.91711432	0	0	0
20.65000000	1970.50760308	1960.75471674	1795.72632534	1305.48299148	1487.90041571	1302.50527739	1306.88342042	0	0	0
20.66000000	1971.39306617	1963.99639098	1805.08531302	1305.23443845	1488.02228318	1302.56632988	1307.91135967	0	0	0
20.67000000	1973.87374368	1967.13674851	1802.65780517	1305.04882648	1488.11657406	1302.72174261	1308.88651640	0	0	0
20.68000000	1976.76756156	1969.41815917	1782.08180669	1304.97716219	1488.08897783	1302.91127002	1309.69447494	0	0	0
20.69000000	1978.92085849	1970.10479668	1737.22124081	1305.06859905	1487.84798967	1303.07631091	1310.22413505	0	0	0
20.70000000	1979.83346610	1968.96232398	1667.13615215	1305.32966760	1487.36663660	1303.19608372	1310.44065110	0	0	0
20.71000000	1979.65870894	1966.25789323	1576.08270669	1305.72427550	1486.68247744	1303.28762656	1310.38543207	0	0	0
20.72000000	1978.57832431	1962.28046050	1468.54298875	1306.21447725	1485.83587672	1303.36962189	1310.10320236	0	0	0
20.73000000	1976.77404951	1957.31898182	1348.99908264	1306.76232732	1484.86719899	1303.46075214	1309.63868638	0	0	0
20.74000000	1974.42762185	1951.66241325	1221.93307269	1307.32988021	1483.81680881	1303.57969977	1309.03660852	0	0	0
20.75000000	1971.72077862	1945.59971083	1091.82704321	1307.87919040	1482.72507073	1303.74514721	1308.34169320	0	0	0
20.76000000	1968.83525711	1939.41983061	963.16307851	1308.37231238	1481.63234927	1303.97577691	1307.59866481	0	0	0
20.77000000	1965.95279464	1933.41172865	840.42326292	1308.77130062	1480.57900901	1304.29027132	1306.85224775	0	0	0
20.78000000	1963.25512849	1927.86436098	728.08968074	1309.03820963	1479.60541447	1304.70731289	1306.14716643	0	0	0
20.79000000	1960.92399597	1923.06668366	630.64441628	1309.13509388	1478.75193022	1305.24558404	1305.52814526	0	0	0
20.80000000	1959.14113437	1919.30765273	552.56955388	1309.02400787	1478.05892079	1305.92376724	1305.03990862	0	0	0
20.81000000	1958.05234207	1916.81945984	497.40397809	1308.67796269	1477.55878479	1306.75185232	1304.71900067	0	0	0
20.82000000	1957.60903171	1915.52727045	463.58501435	1308.12923136	1477.24083478	1307.69281273	1304.55772027	0	0	0
20.83000000	1957.69719622	1915.25292168	447.83307990	1307.43003124	1477.07988290	1308.69379873	1304.53347576	0	0	0
20.84000000	1958.20277927	1915.81817279	446.86729817	1306.63259473	1477.05073035	1309.70194868	1304.62366423	0	0	0
20.85000000	1959.01172448	1917.04478300	457.40679258	1305.78915422	1477.12817835	1310.66440094	1304.80568279	0	0	0
20.86000000	1960.00997552	1918.75451159	476.17068654	1304.95194210	1477.28702811	1311.52829384	1305.05692855	0	0	0
20.87000000	1961.08347602	1920.76911778	499.87810348	1304.17319076	1477.50208083	1312.24076576	1305.35479860	0	0	0
20.88000000	1962.11816963	1922.91036084	525.24816683	1303.50513259	1477.74813772	1312.74895502	1305.67669005	0	0	0
20.89000000	1963.00000000	1925.00000000	549.00000000	1303.00000000	1478.00000000	1313	1306.00000000	0	0	0
20.90000000	1963.63847549	1926.89029380	568.47038391	1302.69780304	1478.23624085	1312.95648354	1306.30565625	0	0	0
20.91000000	1964.03736334	1928.55549791	583.46672948	1302.58966247	1478.45052138	1312.64276649	1306.58870939	0	0	0
20.92000000	1964.22399551	1930.00036726	594.41410510	1302.65447672	1478.64027465	1312.09865423	1306.84774068	0	0	0
20.93000000	1964.22570396	1931.22965681	601.73757920	1302.87114421	1478.80293376	1311.36395212	1307.08133140	0	0	0
20.94000000	1964.06982066	1932.24812149	605.86222018	1303.21856339	1478.93593178	1310.47846551	1307.28806283	0	0	0
20.95000000	1963.78367755	1933.06051625	607.21309645	1303.67563266	1479.03670178	1309.48199978	1307.46651623	0	0	0
20.96000000	1963.39460660	1933.67159604	606.21527643	1304.22125048	1479.10267685	1308.41436028	1307.61527289	0	0	0
20.97000000	1962.92993976	1934.08611580	603.29382851	1304.83431526	1479.13129007	1307.31535238	1307.73291408	0	0	0
20.98000000	1962.41700901	1934.30883047	598.87382111	1305.49372543	1479.11997451	1306.22478144	1307.81802107	0	0	0
20.99000000	1961.88314629	1934.34449501	593.38032264	1306.17837942	1479.06616326	1305.18245282	1307.86917514	0	0	0
21.00000000	1961.35568356	1934.19786435	587.23840150	1306.86717567	1478.96728939	1304.22817188	1307.88495757	0	0	0
21.01000000	1960.86195279	1933.87369344	580.87312612	1307.53901259	1478.82078597	1303.40174400	1307.86394962	0	0	0
21.02000000	1960.42928593	1933.37673722	574.70956488	1308.17278863	1478.62408610	1302.74297452	1307.80473258	0	0	0
21.03000000	1960.08501495	1932.71175064	569.17278622	1308.74740220	1478.37462285	1302.29166881	1307.70588771	0	0	0
21.04000000	1959.85647180	1931.88348865	564.68785853	1309.24175174	1478.06982929	1302.08763225	1307.56599630	0	0	0
21.05000000	1959.77098844	1930.89670618	561.67985022	1309.63473568	1477.70713851	1302.17067017	1307.38363961	0	0	0
21.06000000	1959.85589683	1929.75615819	560.57382971	1309.90525244	1477.28398358	1302.58058796	1307.15739892	0	0	0
21.07000000	1960.13736302	1928.46666912	561.77949499	1310.03270287	1476.79765385	1303.35551218	1306.88618891	0	0	0
21.08000000	1960.59622839	1927.03576530	565.10901930	1310.01601926	1476.23985083	1304.46830621	1306.58188527	0	0	0
21.09000000	1961.15445596	1925.47448290	569.59837008	1309.87950592	1475.59501724	1305.80705426	1306.27320047	0	0	0
21.10000000	1961.73007381	1923.79409267	574.23163965	1309.64916283	1474.84711070	1307.25417459	1305.98997225	0	0	0
21.11000000	1962.24111002	1922.00586535	577.99292032	1309.35098995	1473.98008881	1308.69208548	1305.76203832	0	0	0
21.12000000	1962.60559266	1920.12107168	579.86630438	1309.01098725	1472.97790919	1310.00320520	1305.61923641	0	0	0
21.13000000	1962.74154981	1918.15098240	578.83588414	1308.65515472	1471.82452944	1311.06995201	1305.59140424	0	0	0
21.14000000	1962.56700957	1916.10686826	573.88575191	1308.30949231	1470.50390717	1311.77474419	1305.70837953	0	0	0
21.15000000	1962	1914	564	1308	1469	1312	1306	0	0	0
21.16000000	1961.02013567	1911.86876129	549.06840753	1307.74661288	1467.31260857	1311.66944868	1306.48076181	0	0	0
21.17000000	1959.85337707	1909.85998756	532.60350089	1307.54500649	1465.50490567	1310.87206334	1307.10379486	0	0	0
21.18000000	1958.78727117	1908.14762715	519.02349331	1307.38479148	1463.65590712	1309.73812805	1307.80688749	0	0	0
21.19000000	1958.10936495	1906.90562842	512.74659798	1307.25557852	1461.84462876	1308.39792688	1308.52782804	0	0	0
21.20000000	1958.10720538	1906.30793972	518.19102812	1307.14697826	1460.15008640	1306.98174392	1309.20440484	0	0	0
